<svg width="32" height="32" viewBox="0 0 32 32" fill="none" xmlns="http://www.w3.org/2000/svg">
  <path d="M16 4C14 4 12 5 11 6.5C10 5 8 4 6 4C3 4 1 6 1 9C1 15 7 20 11 23C12 23.7 14 25 16 25C18 25 20 23.7 21 23C25 20 31 15 31 9C31 6 29 4 26 4C24 4 22 5 21 6.5C20 5 18 4 16 4Z" fill="black"/>
  <path d="M16 6C14.5 6 13 7 12 8C11 7 9.5 6 8 6C6 6 4 8 4 10C4 14 8 18 12 21C13 21.7 14.5 22 16 22C17.5 22 19 21.7 20 21C24 18 28 14 28 10C28 8 26 6 24 6C22.5 6 21 7 20 8C19 7 17.5 6 16 6Z" fill="#10b981"/>
</svg>